<?xml version="1.0" encoding="UTF-8"?>
<svg viewBox="0 0 1000 340" xmlns="http://www.w3.org/2000/svg" font-family="'DM Mono','Courier New',monospace">
  <defs>
    <!-- Carbon fiber weave pattern -->
    <pattern id="cfWave" x="0" y="0" width="8" height="8" patternUnits="userSpaceOnUse">
      <rect width="8" height="8" fill="#181c20"/>
      <path d="M0 0L4 4L8 0M0 8L4 4L8 8" stroke="#242830" stroke-width="0.6" fill="none"/>
    </pattern>
    <!-- Chassis metal gradient (FDE/titanium look) -->
    <linearGradient id="gChassis" x1="0" y1="0" x2="0" y2="1">
      <stop offset="0%"   stop-color="#9aaa98"/>
      <stop offset="25%"  stop-color="#708a78"/>
      <stop offset="70%"  stop-color="#4e6858"/>
      <stop offset="100%" stop-color="#2c3e34"/>
    </linearGradient>
    <!-- Top ledge of chassis -->
    <linearGradient id="gTop" x1="0" y1="0" x2="0" y2="1">
      <stop offset="0%"   stop-color="#aabaa8"/>
      <stop offset="60%"  stop-color="#7a9a88"/>
      <stop offset="100%" stop-color="#4a6a58"/>
    </linearGradient>
    <!-- Scope body -->
    <linearGradient id="gScope" x1="0" y1="0" x2="0" y2="1">
      <stop offset="0%"   stop-color="#383838"/>
      <stop offset="40%"  stop-color="#242424"/>
      <stop offset="100%" stop-color="#101010"/>
    </linearGradient>
    <!-- Cylinder top-lit -->
    <linearGradient id="gCyl" x1="0" y1="0" x2="0" y2="1">
      <stop offset="0%"   stop-color="#2e2e2e"/>
      <stop offset="30%"  stop-color="#3a3a3a"/>
      <stop offset="100%" stop-color="#141414"/>
    </linearGradient>
    <!-- Action block -->
    <linearGradient id="gAction" x1="0" y1="0" x2="0" y2="1">
      <stop offset="0%"   stop-color="#506070"/>
      <stop offset="50%"  stop-color="#2a3e50"/>
      <stop offset="100%" stop-color="#1a2a38"/>
    </linearGradient>
  </defs>

  <!-- ─── BACKGROUND ─── -->
  <rect width="1000" height="340" fill="#0d1117"/>
  <!-- Very faint grid -->
  <rect width="1000" height="340" fill="none" stroke="#ffffff" stroke-width="0"
        style="background-image:none"/>

  <!-- ─── TITLE ─── -->
  <text x="500" y="26" text-anchor="middle"
        font-family="'Bebas Neue',Arial Black,sans-serif"
        font-size="19" letter-spacing="4" fill="#f0a500">
    BULLPUP PCP AIRGUN
  </text>
  <line x1="80" y1="33" x2="920" y2="33" stroke="#30363d" stroke-width="0.75"/>

  <!-- ════════════════════════════════════════
       STOCK ASSEMBLY  (x:38–190, y:95–210)
       Skeletal folding/adjustable stock
  ════════════════════════════════════════ -->

  <!-- Rubber butt pad -->
  <rect x="33" y="134" width="10" height="50" rx="3" fill="#1a1a22" stroke="#384858" stroke-width="1"/>

  <!-- Rear vertical strut -->
  <rect x="43" y="100" width="16" height="84" rx="3" fill="url(#gChassis)" stroke="#6a8878" stroke-width="1"/>
  <rect x="46" y="103" width="10" height="78" rx="2" fill="#192830"/>

  <!-- Cheek rest / top plate -->
  <path d="M43 100 L186 98 Q191 98 191 104 L191 115 L43 116 Z"
        fill="url(#gTop)" stroke="#7a9a88" stroke-width="1"/>
  <rect x="50" y="101" width="134" height="8" rx="0" fill="#1a2a30" opacity="0.5"/>
  <!-- Cheek rest subtle arc -->
  <path d="M60 99 Q100 91 152 95 L185 98" fill="none" stroke="#9abaaa" stroke-width="1.5"/>

  <!-- Stock large cutout window -->
  <rect x="65" y="100" width="108" height="62" rx="5" fill="#0d1117"/>
  <rect x="65" y="100" width="108" height="62" rx="5" fill="none" stroke="#253535" stroke-width="1"/>

  <!-- Top horizontal strut (above window) -->
  <rect x="43" y="115" width="150" height="11" rx="2" fill="#2e4248" stroke="#4e6878" stroke-width="1"/>
  <!-- Bottom horizontal strut (below window) -->
  <rect x="43" y="160" width="150" height="11" rx="2" fill="#2e4248" stroke="#4e6878" stroke-width="1"/>

  <!-- Front vertical strut (connects stock to chassis) -->
  <rect x="176" y="98" width="16" height="84" rx="3" fill="url(#gChassis)" stroke="#6a8878" stroke-width="1"/>

  <!-- Sling swivel stud -->
  <circle cx="56" cy="176" r="5" fill="none" stroke="#4e6878" stroke-width="1.5"/>
  <circle cx="56" cy="176" r="2" fill="#4e6878"/>

  <!-- Lower rear grip (ergonomic handle at butt end) -->
  <path d="M43 168 L43 196 Q43 206 53 207 L76 207 Q84 206 84 196 L84 168 Z"
        fill="#1c2a35" stroke="#4e6878" stroke-width="1"/>

  <!-- ════════════════════════════════════════
       MAIN CHASSIS BODY  (x:190–590, y:95–200)
       Machined aluminum, skeletal with 3 cutouts
  ════════════════════════════════════════ -->

  <!-- Outer chassis frame -->
  <rect x="190" y="95" width="400" height="105" rx="6" fill="url(#gChassis)" stroke="#7a9a88" stroke-width="1.5"/>
  <!-- Interior face -->
  <rect x="194" y="99" width="392" height="97" rx="4" fill="#1c2c38"/>

  <!-- Top ledge (milled rail interface surface) -->
  <rect x="190" y="95" width="400" height="11" rx="5" fill="url(#gTop)" stroke="#8aaab8" stroke-width="1"/>
  <rect x="192" y="96" width="396" height="4" rx="2" fill="rgba(255,255,255,0.09)"/>

  <!-- Bottom ledge -->
  <rect x="190" y="189" width="400" height="11" rx="3" fill="#384a5a" stroke="#4e6878" stroke-width="1"/>

  <!-- ── 3 Lightening cutout windows ── -->
  <!-- Window 1 (rear) -->
  <rect x="198" y="112" width="86" height="70" rx="5" fill="#0d1117" stroke="#25353a" stroke-width="1"/>
  <!-- Window 2 (center) -->
  <rect x="300" y="112" width="86" height="70" rx="5" fill="#0d1117" stroke="#25353a" stroke-width="1"/>
  <!-- Window 3 (forward, action visible) -->
  <rect x="402" y="112" width="86" height="70" rx="5" fill="#0d1117" stroke="#25353a" stroke-width="1"/>

  <!-- ── ACTION BLOCK (breech / bolt, right portion of chassis) ── -->
  <rect x="498" y="95" width="92" height="105" rx="5" fill="url(#gAction)" stroke="#6a8898" stroke-width="1.5"/>
  <rect x="502" y="99" width="84" height="97" rx="3" fill="#1a2c38"/>

  <!-- Breech / loading port (dashed gold border) -->
  <rect x="510" y="126" width="64" height="42" rx="3"
        fill="#0d1117" stroke="#f0a500" stroke-width="1" stroke-dasharray="3,1.5"/>
  <text x="542" y="150" text-anchor="middle"
        font-family="'DM Mono',monospace" font-size="7" fill="#f0a500">BREECH</text>

  <!-- Bolt track slot (top of action) -->
  <rect x="502" y="105" width="84" height="10" rx="3" fill="#0d1117" stroke="#4fc3f7" stroke-width="0.8"/>

  <!-- Bolt probe handle -->
  <rect x="546" y="102" width="14" height="18" rx="3" fill="#2a3848" stroke="#4fc3f7" stroke-width="1.2"/>
  <ellipse cx="553" cy="102" rx="8" ry="5" fill="#1e2e3e" stroke="#4fc3f7" stroke-width="1.2"/>

  <!-- Regulator outline (green dashed) -->
  <rect x="495" y="152" width="54" height="32" rx="3"
        fill="#1a2030" stroke="#66bb6a" stroke-width="1" stroke-dasharray="2.5,1.5"/>
  <text x="522" y="167" text-anchor="middle"
        font-family="'DM Mono',monospace" font-size="6.5" fill="#66bb6a">REGULATOR</text>
  <text x="522" y="177" text-anchor="middle"
        font-family="'DM Mono',monospace" font-size="6" fill="#66bb6a">230→110 bar</text>

  <!-- Pressure gauge -->
  <circle cx="496" cy="136" r="13" fill="#1a2028" stroke="#f0a500" stroke-width="1.5"/>
  <circle cx="496" cy="136" r="10" fill="#0d1117"/>
  <circle cx="496" cy="136" r="7.5" fill="#080b10"/>
  <!-- Gauge marks -->
  <g stroke="#f0a500" stroke-width="0.7" fill="none">
    <line x1="496" y1="126" x2="496" y2="128"/>
    <line x1="503" y1="128" x2="502" y2="130"/>
    <line x1="505" y1="136" x2="503" y2="136"/>
  </g>
  <!-- Needle -->
  <line x1="496" y1="136" x2="501" y2="129" stroke="#ef5350" stroke-width="1.5" stroke-linecap="round"/>

  <!-- ── SIDE LEVER / COCKING HANDLE ── -->
  <rect x="585" y="102" width="14" height="32" rx="4" fill="#2a3848" stroke="#546e7a" stroke-width="1.5"/>
  <ellipse cx="592" cy="101" rx="10" ry="6" fill="#344858" stroke="#546e7a" stroke-width="1.5"/>

  <!-- ── ROTARY MAGAZINE (10-shot, visible in chassis window) ── -->
  <circle cx="460" cy="147" r="23" fill="#1a2028" stroke="#f0a500" stroke-width="1.5"/>
  <circle cx="460" cy="147" r="18" fill="#0d1117"/>
  <circle cx="460" cy="147" r="5"  fill="#1a2028" stroke="#4e6878" stroke-width="1"/>
  <!-- 10 pellet slots around perimeter -->
  <circle cx="460" cy="125" r="3.5" fill="#f0a500" opacity="0.95"/>
  <circle cx="472" cy="129" r="3.5" fill="#f0a500" opacity="0.80"/>
  <circle cx="479" cy="141" r="3.5" fill="#f0a500" opacity="0.65"/>
  <circle cx="477" cy="154" r="3.5" fill="#f0a500" opacity="0.45"/>
  <circle cx="470" cy="164" r="3.5" fill="#f0a500" opacity="0.30"/>
  <circle cx="460" cy="169" r="3.5" fill="#f0a500" opacity="0.20"/>
  <circle cx="450" cy="164" r="3.5" fill="#f0a500" opacity="0.30"/>
  <circle cx="443" cy="154" r="3.5" fill="#f0a500" opacity="0.45"/>
  <circle cx="441" cy="141" r="3.5" fill="#f0a500" opacity="0.65"/>
  <circle cx="448" cy="129" r="3.5" fill="#f0a500" opacity="0.80"/>

  <!-- ════════════════════════════════════════
       PICATINNY RAIL  (x:192–660, y:86–96)
  ════════════════════════════════════════ -->
  <rect x="192" y="86" width="468" height="10" rx="2" fill="#28384a" stroke="#4e6878" stroke-width="1"/>
  <rect x="193" y="86" width="466" height="4"  rx="1" fill="#344858"/>
  <!-- Rail slots every 14px -->
  <g fill="#0d1117">
    <rect x="197" y="88" width="7" height="6" rx="0.5"/>
    <rect x="211" y="88" width="7" height="6" rx="0.5"/>
    <rect x="225" y="88" width="7" height="6" rx="0.5"/>
    <rect x="239" y="88" width="7" height="6" rx="0.5"/>
    <rect x="253" y="88" width="7" height="6" rx="0.5"/>
    <rect x="267" y="88" width="7" height="6" rx="0.5"/>
    <rect x="281" y="88" width="7" height="6" rx="0.5"/>
    <rect x="295" y="88" width="7" height="6" rx="0.5"/>
    <rect x="309" y="88" width="7" height="6" rx="0.5"/>
    <rect x="323" y="88" width="7" height="6" rx="0.5"/>
    <rect x="337" y="88" width="7" height="6" rx="0.5"/>
    <rect x="351" y="88" width="7" height="6" rx="0.5"/>
    <rect x="365" y="88" width="7" height="6" rx="0.5"/>
    <rect x="379" y="88" width="7" height="6" rx="0.5"/>
    <rect x="393" y="88" width="7" height="6" rx="0.5"/>
    <rect x="407" y="88" width="7" height="6" rx="0.5"/>
    <rect x="421" y="88" width="7" height="6" rx="0.5"/>
    <rect x="435" y="88" width="7" height="6" rx="0.5"/>
    <rect x="449" y="88" width="7" height="6" rx="0.5"/>
    <rect x="463" y="88" width="7" height="6" rx="0.5"/>
    <rect x="477" y="88" width="7" height="6" rx="0.5"/>
    <rect x="491" y="88" width="7" height="6" rx="0.5"/>
    <rect x="505" y="88" width="7" height="6" rx="0.5"/>
    <rect x="519" y="88" width="7" height="6" rx="0.5"/>
    <rect x="533" y="88" width="7" height="6" rx="0.5"/>
    <rect x="547" y="88" width="7" height="6" rx="0.5"/>
    <rect x="561" y="88" width="7" height="6" rx="0.5"/>
    <rect x="575" y="88" width="7" height="6" rx="0.5"/>
    <rect x="589" y="88" width="7" height="6" rx="0.5"/>
    <rect x="603" y="88" width="7" height="6" rx="0.5"/>
    <rect x="617" y="88" width="7" height="6" rx="0.5"/>
    <rect x="631" y="88" width="7" height="6" rx="0.5"/>
    <rect x="645" y="88" width="7" height="6" rx="0.5"/>
  </g>

  <!-- ════════════════════════════════════════
       SCOPE  (mounted on rail above chassis)
  ════════════════════════════════════════ -->
  <!-- Ring mounts -->
  <rect x="464" y="64" width="20" height="24" rx="3" fill="#1e2c3a" stroke="#546e7a" stroke-width="1.5"/>
  <rect x="466" y="58" width="16" height="8"  rx="2" fill="#28384a" stroke="#546e7a" stroke-width="1"/>
  <rect x="298" y="64" width="20" height="24" rx="3" fill="#1e2c3a" stroke="#546e7a" stroke-width="1.5"/>
  <rect x="300" y="58" width="16" height="8"  rx="2" fill="#28384a" stroke="#546e7a" stroke-width="1"/>

  <!-- Main scope tube -->
  <rect x="285" y="44" width="220" height="24" rx="12" fill="url(#gScope)" stroke="#3a3a3a" stroke-width="1.5"/>
  <rect x="287" y="45" width="216" height="5"  rx="2.5" fill="rgba(255,255,255,0.07)"/>

  <!-- Eyepiece bell (left) -->
  <ellipse cx="288" cy="56" rx="16" ry="21" fill="url(#gScope)" stroke="#3a3a3a" stroke-width="1.5"/>
  <!-- Fast-focus ring -->
  <rect x="268" y="44" width="18" height="24" rx="4" fill="#2a3540" stroke="#546e7a" stroke-width="1"/>
  <g fill="none" stroke="#404e5a" stroke-width="0.6">
    <line x1="270" y1="49" x2="284" y2="49"/>
    <line x1="270" y1="54" x2="284" y2="54"/>
    <line x1="270" y1="59" x2="284" y2="59"/>
    <line x1="270" y1="64" x2="284" y2="64"/>
  </g>
  <!-- Eye lens -->
  <ellipse cx="269" cy="56" rx="11" ry="16" fill="#0d1117" stroke="#252525" stroke-width="1"/>
  <ellipse cx="268" cy="56" rx="7"  ry="10" fill="#080b10"/>
  <ellipse cx="266" cy="51" rx="2"  ry="3"  fill="rgba(79,195,247,0.13)"/>

  <!-- Objective bell (right) -->
  <ellipse cx="502" cy="56" rx="20" ry="26" fill="url(#gScope)" stroke="#3a3a3a" stroke-width="1.5"/>
  <!-- Objective lens -->
  <ellipse cx="510" cy="56" rx="14" ry="20" fill="#0d1117" stroke="#252525" stroke-width="1"/>
  <ellipse cx="511" cy="56" rx="9"  ry="13" fill="#080b10"/>
  <ellipse cx="508" cy="50" rx="3"  ry="4"  fill="rgba(79,195,247,0.1)"/>

  <!-- Elevation turret -->
  <rect x="380" y="30" width="24" height="16" rx="3" fill="#2a3540" stroke="#546e7a" stroke-width="1.5"/>
  <rect x="383" y="26" width="18" height="6"  rx="2" fill="#344858" stroke="#546e7a" stroke-width="1"/>
  <!-- Windage cap (right side, small) -->
  <rect x="500" y="50" width="16" height="12" rx="2" fill="#2a3540" stroke="#546e7a" stroke-width="1"/>
  <!-- Parallax knob -->
  <circle cx="452" cy="56" r="11" fill="#1e2c3a" stroke="#546e7a" stroke-width="1.5"/>
  <circle cx="452" cy="56" r="7"  fill="#161e28"/>

  <!-- ════════════════════════════════════════
       BARREL  (carbon fiber shroud)
       x:590–865, center y:117
  ════════════════════════════════════════ -->
  <!-- Barrel-to-action junction block -->
  <rect x="584" y="104" width="14" height="24" rx="3" fill="#2a3848" stroke="#546e7a" stroke-width="1.5"/>
  <!-- CF barrel shroud -->
  <rect x="588" y="107" width="278" height="20" rx="10" fill="url(#cfWave)" stroke="#303030" stroke-width="1.5"/>
  <rect x="590" y="108" width="274" height="5"  rx="2.5" fill="rgba(255,255,255,0.04)"/>
  <!-- Muzzle crown block -->
  <rect x="863" y="109" width="7" height="16" rx="2" fill="#2e3c4a" stroke="#546e7a" stroke-width="1"/>

  <!-- ════════════════════════════════════════
       AIR CYLINDER  (carbon fiber, below barrel)
       x:584–856, center y:162
  ════════════════════════════════════════ -->
  <!-- CF cylinder body -->
  <rect x="584" y="137" width="272" height="50" rx="25" fill="url(#cfWave)" stroke="#303030" stroke-width="1.5"/>
  <rect x="586" y="138" width="268" height="7"  rx="3.5" fill="rgba(255,255,255,0.05)"/>

  <!-- Left end cap (valve / fill port side) -->
  <ellipse cx="584" cy="162" rx="25" ry="25" fill="#2a3848" stroke="#546e7a" stroke-width="1.5"/>
  <ellipse cx="584" cy="162" rx="18" ry="18" fill="#1a2a38"/>
  <ellipse cx="584" cy="162" rx="10" ry="10" fill="#0d1117" stroke="#546e7a" stroke-width="0.75"/>
  <!-- Foster fill port nipple -->
  <rect x="552" y="157" width="18" height="10" rx="4" fill="#2a3848" stroke="#4fc3f7" stroke-width="1.5"/>
  <circle cx="550" cy="162" r="5"  fill="#1a2028" stroke="#4fc3f7" stroke-width="1"/>
  <!-- Air fill indicator dot -->
  <circle cx="584" cy="162" r="4"  fill="#f0a500" opacity="0.75"/>

  <!-- Right end cap -->
  <ellipse cx="856" cy="162" rx="25" ry="25" fill="#202020" stroke="#303030" stroke-width="1.5"/>
  <ellipse cx="856" cy="162" rx="17" ry="17" fill="#181818"/>
  <ellipse cx="856" cy="162" rx="9"  ry="9"  fill="#0d1117" stroke="#303030" stroke-width="0.75"/>

  <!-- Cylinder mounting bands -->
  <g fill="#2e3e4e" stroke="#546e7a" stroke-width="1">
    <rect x="598" y="135" width="14" height="54" rx="5"/>
    <rect x="654" y="135" width="14" height="54" rx="5"/>
    <rect x="716" y="135" width="14" height="54" rx="5"/>
    <rect x="778" y="135" width="14" height="54" rx="5"/>
  </g>

  <!-- Regulator zone highlight on cylinder -->
  <rect x="600" y="139" width="38" height="46" rx="4"
        fill="none" stroke="#66bb6a" stroke-width="1" stroke-dasharray="3,1.5"/>

  <!-- Air transfer port connection (cylinder → action) -->
  <rect x="584" y="127" width="12" height="12" rx="2" fill="#1a2838" stroke="#4fc3f7" stroke-width="1" stroke-dasharray="2,1"/>

  <!-- ════════════════════════════════════════
       MODERATOR / SUPPRESSOR  (far right)
       x:863–966, center y:117
  ════════════════════════════════════════ -->
  <rect x="863" y="98"  width="104" height="38" rx="19" fill="#1c1c1c" stroke="#3a3a3a" stroke-width="1.5"/>
  <rect x="865" y="99"  width="100" height="7"  rx="3.5" fill="rgba(255,255,255,0.04)"/>
  <!-- Baffle stack lines -->
  <g stroke="#282828" stroke-width="0.8" fill="none">
    <line x1="882" y1="98" x2="882" y2="136"/>
    <line x1="900" y1="98" x2="900" y2="136"/>
    <line x1="918" y1="98" x2="918" y2="136"/>
    <line x1="936" y1="98" x2="936" y2="136"/>
    <line x1="954" y1="98" x2="954" y2="136"/>
  </g>
  <!-- Muzzle end cap -->
  <ellipse cx="966" cy="117" rx="19" ry="19" fill="#161616" stroke="#2a2a2a" stroke-width="1.5"/>
  <!-- Bore opening -->
  <circle cx="968" cy="117" r="7"  fill="#0d1117" stroke="#222" stroke-width="1"/>
  <circle cx="968" cy="117" r="3"  fill="#080b10"/>

  <!-- ════════════════════════════════════════
       PISTOL GRIP  (x:362–438, y:197–270)
  ════════════════════════════════════════ -->
  <!-- Grip outer shell -->
  <path d="M365 197 L365 258 Q366 269 375 271 L422 271 Q432 269 434 258 L438 216 L438 197 Z"
        fill="#16161e" stroke="#3a4a5a" stroke-width="1.5"/>
  <!-- Interior face -->
  <path d="M369 200 L369 256 Q370 267 378 268 L420 268 Q428 266 430 255 L434 218 L434 200 Z"
        fill="#111116"/>
  <!-- Stippling lines -->
  <g stroke="#1e1e28" stroke-width="0.7" fill="none">
    <line x1="371" y1="210" x2="432" y2="210"/>
    <line x1="370" y1="220" x2="432" y2="220"/>
    <line x1="370" y1="230" x2="433" y2="230"/>
    <line x1="371" y1="240" x2="433" y2="240"/>
    <line x1="372" y1="250" x2="432" y2="250"/>
    <line x1="374" y1="260" x2="430" y2="260"/>
  </g>
  <!-- Grip screw -->
  <circle cx="378" cy="234" r="4" fill="#1e2028" stroke="#354550" stroke-width="1"/>
  <line x1="376" y1="234" x2="380" y2="234" stroke="#354550" stroke-width="0.8"/>

  <!-- Trigger guard -->
  <path d="M338 197 Q332 212 335 230 Q337 244 352 248 L452 248 Q467 244 469 230 Q472 212 466 197"
        fill="none" stroke="#3a4a5a" stroke-width="1.5"/>
  <!-- Guard shadow fill -->
  <path d="M338 197 Q332 212 335 230 Q337 244 352 248 L452 248 Q467 244 469 230 Q472 212 466 197
           L454 197 Q458 211 455 227 Q453 239 444 242 L358 242 Q348 239 347 227 Q344 211 348 197 Z"
        fill="#131820" stroke="#2a3848" stroke-width="0.75"/>

  <!-- Trigger blade -->
  <path d="M392 200 Q390 213 392 226 Q394 234 398 237"
        stroke="#ef5350" stroke-width="2.5" fill="none" stroke-linecap="round"/>
  <circle cx="398" cy="237" r="3" fill="#ef5350"/>

  <!-- ════════════════════════════════════════
       CALLOUT LEADER LINES
  ════════════════════════════════════════ -->
  <g fill="none" stroke="#30363d" stroke-width="0.85">
    <!-- 1. Adjustable folding stock -->
    <polyline points="96,100 96,58 52,58"/>
    <!-- 2. Skeletal chassis -->
    <polyline points="292,95 292,56 244,56"/>
    <!-- 3. Scope -->
    <polyline points="390,30 390,13 336,13"/>
    <!-- 4. Picatinny rail -->
    <polyline points="242,86 242,68 198,68"/>
    <!-- 5. Rotary magazine -->
    <polyline points="460,124 460,70 504,58"/>
    <!-- 6. Bolt / cocking probe -->
    <polyline points="553,101 553,70 598,58"/>
    <!-- 7. CF barrel -->
    <polyline points="728,107 728,66 764,56"/>
    <!-- 8. Moderator -->
    <polyline points="914,98 914,56 868,44"/>
    <!-- 9. High-pressure cylinder -->
    <polyline points="728,187 728,228 764,240"/>
    <!-- 10. Foster fill port -->
    <polyline points="550,162 524,192 474,204"/>
    <!-- 11. Regulator -->
    <polyline points="614,162 640,204 676,216"/>
    <!-- 12. Trigger -->
    <polyline points="396,237 396,268 444,280"/>
    <!-- 13. Pistol grip -->
    <polyline points="400,271 400,292 356,292"/>
    <!-- 14. Pressure gauge -->
    <polyline points="484,136 468,116 450,108"/>
  </g>

  <!-- ── Callout dots ── -->
  <g fill="#4fc3f7">
    <circle cx="96"  cy="100" r="3"/>
    <circle cx="292" cy="95"  r="3"/>
    <circle cx="390" cy="30"  r="3"/>
    <circle cx="242" cy="86"  r="3"/>
    <circle cx="460" cy="124" r="3"/>
    <circle cx="553" cy="101" r="3"/>
    <circle cx="728" cy="107" r="3"/>
    <circle cx="914" cy="98"  r="3"/>
    <circle cx="728" cy="187" r="3"/>
    <circle cx="614" cy="162" r="3" fill="#66bb6a"/>
    <circle cx="396" cy="237" r="3" fill="#ef5350"/>
    <circle cx="400" cy="271" r="3"/>
    <circle cx="484" cy="136" r="3" fill="#f0a500"/>
  </g>
  <!-- Fill port in blue -->
  <circle cx="550" cy="162" r="3" fill="#4fc3f7"/>

  <!-- ── Callout label text ── -->
  <g font-family="'DM Mono','Courier New',monospace" font-size="9.5" fill="#8b949e">
    <text x="50"  y="56"  text-anchor="end">ADJUSTABLE STOCK</text>
    <text x="242" y="54"  text-anchor="end">MACHINED CHASSIS (FDE)</text>
    <text x="334" y="12"  text-anchor="end">VARIABLE POWER SCOPE</text>
    <text x="196" y="66"  text-anchor="end">PICATINNY RAIL</text>
    <text x="506" y="56"  text-anchor="start">10-SHOT ROTARY MAG</text>
    <text x="600" y="56"  text-anchor="start">BOLT / PROBE</text>
    <text x="766" y="54"  text-anchor="start">CARBON FIBER BARREL</text>
    <text x="866" y="42"  text-anchor="end">MODERATOR</text>
    <text x="766" y="238" text-anchor="start">CF AIR CYLINDER (230 bar)</text>
    <text x="472" y="202" text-anchor="end">FOSTER FILL PORT</text>
    <text x="678" y="214" text-anchor="start">REGULATOR</text>
    <text x="446" y="278" text-anchor="start">TRIGGER</text>
    <text x="354" y="290" text-anchor="end">PISTOL GRIP</text>
    <text x="448" y="106" text-anchor="end">PSI GAUGE</text>
  </g>

  <!-- ─── LEGEND ─── -->
  <line x1="80" y1="306" x2="920" y2="306" stroke="#30363d" stroke-width="0.75"/>
  <g font-family="'DM Mono','Courier New',monospace" font-size="8.5">
    <rect x="86"  y="314" width="10" height="10" rx="2" fill="#6a8878"/>
    <text x="100" y="323" fill="#8b949e">STRUCTURAL</text>

    <rect x="200" y="314" width="10" height="10" rx="2" fill="#4fc3f7"/>
    <text x="214" y="323" fill="#8b949e">AIR SYSTEM</text>

    <rect x="310" y="314" width="10" height="10" rx="2" fill="#f0a500"/>
    <text x="324" y="323" fill="#8b949e">FEED SYSTEM</text>

    <rect x="430" y="314" width="10" height="10" rx="2" fill="#66bb6a"/>
    <text x="444" y="323" fill="#8b949e">REGULATOR / VALVE</text>

    <rect x="590" y="314" width="10" height="10" rx="2" fill="#ef5350"/>
    <text x="604" y="323" fill="#8b949e">TRIGGER / SEAR</text>

    <rect x="710" y="314" width="10" height="10" rx="2" fill="url(#cfWave)" stroke="#303030" stroke-width="0.5"/>
    <text x="724" y="323" fill="#8b949e">CARBON FIBER</text>

    <rect x="820" y="314" width="10" height="10" rx="2" fill="#2a3848"/>
    <text x="834" y="323" fill="#8b949e">OPTICS / RAIL</text>
  </g>
</svg>
